<mxfile host="app.diagrams.net" modified="2023-09-20T13:36:13.303Z" agent="Mozilla/5.0 (Windows NT 10.0; Win64; x64) AppleWebKit/537.36 (KHTML, like Gecko) Chrome/116.0.0.0 Safari/537.36" etag="JBw6sq201rA7c8bb0_NC" version="21.7.5" type="github">
  <diagram name="Page-1" id="TrCW5jFZUEIgN4os3lg9">
    <mxGraphModel dx="1444" dy="829" grid="1" gridSize="10" guides="1" tooltips="1" connect="1" arrows="1" fold="1" page="1" pageScale="1" pageWidth="827" pageHeight="1169" math="0" shadow="0">
      <root>
        <mxCell id="0" />
        <mxCell id="1" parent="0" />
        <mxCell id="P4wjGKcGjPRFQc2uvYn5-5" value="" style="edgeStyle=orthogonalEdgeStyle;rounded=0;orthogonalLoop=1;jettySize=auto;html=1;strokeColor=#666666;fontColor=#4D4D4D;" edge="1" parent="1" source="P4wjGKcGjPRFQc2uvYn5-2" target="P4wjGKcGjPRFQc2uvYn5-4">
          <mxGeometry relative="1" as="geometry" />
        </mxCell>
        <mxCell id="P4wjGKcGjPRFQc2uvYn5-2" value="Mulai" style="strokeWidth=2;html=1;shape=mxgraph.flowchart.start_1;whiteSpace=wrap;strokeColor=#666666;fontColor=#4D4D4D;" vertex="1" parent="1">
          <mxGeometry x="262" y="385" width="70" height="40" as="geometry" />
        </mxCell>
        <mxCell id="P4wjGKcGjPRFQc2uvYn5-7" value="" style="edgeStyle=orthogonalEdgeStyle;rounded=0;orthogonalLoop=1;jettySize=auto;html=1;strokeColor=#666666;fontColor=#4D4D4D;" edge="1" parent="1" source="P4wjGKcGjPRFQc2uvYn5-4" target="P4wjGKcGjPRFQc2uvYn5-6">
          <mxGeometry relative="1" as="geometry" />
        </mxCell>
        <mxCell id="P4wjGKcGjPRFQc2uvYn5-4" value="Definisi fungsi awal f" style="rounded=1;whiteSpace=wrap;html=1;strokeWidth=2;strokeColor=#666666;fontColor=#4D4D4D;" vertex="1" parent="1">
          <mxGeometry x="237" y="455" width="120" height="60" as="geometry" />
        </mxCell>
        <mxCell id="P4wjGKcGjPRFQc2uvYn5-9" value="" style="edgeStyle=orthogonalEdgeStyle;rounded=0;orthogonalLoop=1;jettySize=auto;html=1;strokeColor=#666666;fontColor=#4D4D4D;" edge="1" parent="1" source="P4wjGKcGjPRFQc2uvYn5-6" target="P4wjGKcGjPRFQc2uvYn5-8">
          <mxGeometry relative="1" as="geometry" />
        </mxCell>
        <mxCell id="P4wjGKcGjPRFQc2uvYn5-6" value="Membuat deret taylor dari fungsi awal" style="rounded=1;whiteSpace=wrap;html=1;strokeWidth=2;strokeColor=#666666;fontColor=#4D4D4D;" vertex="1" parent="1">
          <mxGeometry x="229" y="545" width="136" height="70" as="geometry" />
        </mxCell>
        <mxCell id="P4wjGKcGjPRFQc2uvYn5-19" value="" style="edgeStyle=orthogonalEdgeStyle;rounded=0;orthogonalLoop=1;jettySize=auto;html=1;strokeColor=#666666;fontColor=#4D4D4D;" edge="1" parent="1" source="P4wjGKcGjPRFQc2uvYn5-8" target="P4wjGKcGjPRFQc2uvYn5-18">
          <mxGeometry relative="1" as="geometry" />
        </mxCell>
        <mxCell id="P4wjGKcGjPRFQc2uvYn5-8" value="&lt;p&gt;Memasukkan nilai x yang disesuaikan dengan fungsi asli&lt;/p&gt;" style="rounded=1;whiteSpace=wrap;html=1;strokeWidth=2;strokeColor=#666666;fontColor=#4D4D4D;" vertex="1" parent="1">
          <mxGeometry x="229" y="645" width="136" height="70" as="geometry" />
        </mxCell>
        <mxCell id="P4wjGKcGjPRFQc2uvYn5-13" value="" style="edgeStyle=orthogonalEdgeStyle;rounded=0;orthogonalLoop=1;jettySize=auto;html=1;strokeColor=#666666;fontColor=#4D4D4D;" edge="1" parent="1" source="P4wjGKcGjPRFQc2uvYn5-10" target="P4wjGKcGjPRFQc2uvYn5-12">
          <mxGeometry relative="1" as="geometry" />
        </mxCell>
        <mxCell id="P4wjGKcGjPRFQc2uvYn5-10" value="&lt;p&gt;Memanggil fungsi Taylor yang telah dimasukkan variabel x (eval)&lt;/p&gt;" style="rounded=1;whiteSpace=wrap;html=1;strokeWidth=2;strokeColor=#666666;fontColor=#4D4D4D;" vertex="1" parent="1">
          <mxGeometry x="439" y="455" width="154" height="70" as="geometry" />
        </mxCell>
        <mxCell id="P4wjGKcGjPRFQc2uvYn5-15" value="" style="edgeStyle=orthogonalEdgeStyle;rounded=0;orthogonalLoop=1;jettySize=auto;html=1;strokeColor=#666666;fontColor=#4D4D4D;" edge="1" parent="1" source="P4wjGKcGjPRFQc2uvYn5-12" target="P4wjGKcGjPRFQc2uvYn5-14">
          <mxGeometry relative="1" as="geometry" />
        </mxCell>
        <mxCell id="P4wjGKcGjPRFQc2uvYn5-12" value="Mencetak deret Taylor" style="shape=parallelogram;perimeter=parallelogramPerimeter;whiteSpace=wrap;html=1;fixedSize=1;rounded=1;strokeWidth=2;strokeColor=#666666;fontColor=#4D4D4D;" vertex="1" parent="1">
          <mxGeometry x="433" y="555" width="166" height="60" as="geometry" />
        </mxCell>
        <mxCell id="P4wjGKcGjPRFQc2uvYn5-17" value="" style="edgeStyle=orthogonalEdgeStyle;rounded=0;orthogonalLoop=1;jettySize=auto;html=1;strokeColor=#666666;fontColor=#4D4D4D;" edge="1" parent="1" source="P4wjGKcGjPRFQc2uvYn5-14" target="P4wjGKcGjPRFQc2uvYn5-16">
          <mxGeometry relative="1" as="geometry" />
        </mxCell>
        <mxCell id="P4wjGKcGjPRFQc2uvYn5-14" value="Mencetak hasil aproksimasi" style="shape=parallelogram;perimeter=parallelogramPerimeter;whiteSpace=wrap;html=1;fixedSize=1;rounded=1;strokeWidth=2;strokeColor=#666666;fontColor=#4D4D4D;" vertex="1" parent="1">
          <mxGeometry x="456" y="645" width="120" height="60" as="geometry" />
        </mxCell>
        <mxCell id="P4wjGKcGjPRFQc2uvYn5-16" value="Selesai" style="strokeWidth=2;html=1;shape=mxgraph.flowchart.start_1;whiteSpace=wrap;strokeColor=#666666;fontColor=#4D4D4D;" vertex="1" parent="1">
          <mxGeometry x="481" y="735" width="70" height="40" as="geometry" />
        </mxCell>
        <mxCell id="P4wjGKcGjPRFQc2uvYn5-18" value="&lt;font style=&quot;font-size: 18px;&quot;&gt;A&lt;/font&gt;" style="ellipse;whiteSpace=wrap;html=1;rounded=1;strokeWidth=2;strokeColor=#666666;fontColor=#4D4D4D;" vertex="1" parent="1">
          <mxGeometry x="276.75" y="745" width="40.5" height="40" as="geometry" />
        </mxCell>
        <mxCell id="P4wjGKcGjPRFQc2uvYn5-21" value="" style="edgeStyle=orthogonalEdgeStyle;rounded=0;orthogonalLoop=1;jettySize=auto;html=1;strokeColor=#666666;fontColor=#4D4D4D;" edge="1" parent="1" source="P4wjGKcGjPRFQc2uvYn5-20" target="P4wjGKcGjPRFQc2uvYn5-10">
          <mxGeometry relative="1" as="geometry" />
        </mxCell>
        <mxCell id="P4wjGKcGjPRFQc2uvYn5-20" value="&lt;font style=&quot;font-size: 18px;&quot;&gt;A&lt;/font&gt;" style="ellipse;whiteSpace=wrap;html=1;rounded=1;strokeWidth=2;strokeColor=#666666;fontColor=#4D4D4D;" vertex="1" parent="1">
          <mxGeometry x="495.75" y="385" width="40.5" height="40" as="geometry" />
        </mxCell>
      </root>
    </mxGraphModel>
  </diagram>
</mxfile>
